<svg xmlns="http://www.w3.org/2000/svg" xmlns:xlink="http://www.w3.org/1999/xlink" fill="none" version="1.1" width="48" height="48" viewBox="0 0 48 48"><defs><linearGradient x1="0.28125" y1="0.7088553309440613" x2="0.8194440007209778" y2="0.17066065967082977" id="master_svg0_3_2213"><stop offset="3.428562730550766%" stop-color="#FE3B39" stop-opacity="1"/><stop offset="100%" stop-color="#FD8B8A" stop-opacity="1"/></linearGradient><clipPath id="master_svg1_474_09041"><rect x="14" y="12" width="21" height="24" rx="0"/></clipPath></defs><g><g><ellipse cx="24" cy="24" rx="24" ry="24" fill="url(#master_svg0_3_2213)" fill-opacity="1"/></g><g clip-path="url(#master_svg1_474_09041)"><g><path d="M21.5,13.5C21.5,13.5,21.5,15,21.5,15C21.5,15,27.5,15,27.5,15C27.5,15,27.5,13.5,27.5,13.5C27.5,12.671719,28.170299999999997,12,29,12C29.829700000000003,12,30.5,12.671719,30.5,13.5C30.5,13.5,30.5,15,30.5,15C30.5,15,32.75,15,32.75,15C33.9922,15,35,16.00734,35,17.25C35,17.25,35,19.5,35,19.5C35,19.5,14,19.5,14,19.5C14,19.5,14,17.25,14,17.25C14,16.00734,15.00734,15,16.25,15C16.25,15,18.5,15,18.5,15C18.5,15,18.5,13.5,18.5,13.5C18.5,12.671719,19.17031,12,20,12C20.82969,12,21.5,12.671719,21.5,13.5C21.5,13.5,21.5,13.5,21.5,13.5ZM14,21C14,21,35,21,35,21C35,21,35,33.75,35,33.75C35,34.9922,33.9922,36,32.75,36C32.75,36,16.25,36,16.25,36C15.00734,36,14,34.9922,14,33.75C14,33.75,14,21,14,21C14,21,14,21,14,21ZM17,26.25C17,26.6625,17.33562,27,17.75,27C17.75,27,19.25,27,19.25,27C19.6625,27,20,26.6625,20,26.25C20,26.25,20,24.75,20,24.75C20,24.3375,19.6625,24,19.25,24C19.25,24,17.75,24,17.75,24C17.33562,24,17,24.3375,17,24.75C17,24.75,17,26.25,17,26.25C17,26.25,17,26.25,17,26.25ZM23,26.25C23,26.6625,23.3375,27,23.75,27C23.75,27,25.25,27,25.25,27C25.6625,27,26,26.6625,26,26.25C26,26.25,26,24.75,26,24.75C26,24.3375,25.6625,24,25.25,24C25.25,24,23.75,24,23.75,24C23.3375,24,23,24.3375,23,24.75C23,24.75,23,26.25,23,26.25C23,26.25,23,26.25,23,26.25ZM29.75,24C29.3375,24,29,24.3375,29,24.75C29,24.75,29,26.25,29,26.25C29,26.6625,29.3375,27,29.75,27C29.75,27,31.25,27,31.25,27C31.6625,27,32,26.6625,32,26.25C32,26.25,32,24.75,32,24.75C32,24.3375,31.6625,24,31.25,24C31.25,24,29.75,24,29.75,24C29.75,24,29.75,24,29.75,24ZM17,32.25C17,32.6625,17.33562,33,17.75,33C17.75,33,19.25,33,19.25,33C19.6625,33,20,32.6625,20,32.25C20,32.25,20,30.75,20,30.75C20,30.3375,19.6625,30,19.25,30C19.25,30,17.75,30,17.75,30C17.33562,30,17,30.3375,17,30.75C17,30.75,17,32.25,17,32.25C17,32.25,17,32.25,17,32.25ZM23.75,30C23.3375,30,23,30.3375,23,30.75C23,30.75,23,32.25,23,32.25C23,32.6625,23.3375,33,23.75,33C23.75,33,25.25,33,25.25,33C25.6625,33,26,32.6625,26,32.25C26,32.25,26,30.75,26,30.75C26,30.3375,25.6625,30,25.25,30C25.25,30,23.75,30,23.75,30C23.75,30,23.75,30,23.75,30ZM29,32.25C29,32.6625,29.3375,33,29.75,33C29.75,33,31.25,33,31.25,33C31.6625,33,32,32.6625,32,32.25C32,32.25,32,30.75,32,30.75C32,30.3375,31.6625,30,31.25,30C31.25,30,29.75,30,29.75,30C29.3375,30,29,30.3375,29,30.75C29,30.75,29,32.25,29,32.25C29,32.25,29,32.25,29,32.25Z" fill="#FFFFFF" fill-opacity="1"/></g></g></g></svg>